<?xml version="1.0" encoding="UTF-8"?>
<svg width="117px" height="25px" viewBox="0 0 117 25" version="1.1" xmlns="http://www.w3.org/2000/svg" xmlns:xlink="http://www.w3.org/1999/xlink">
    <!-- Generator: Sketch 56.2 (81672) - https://sketch.com -->
    <title>AJANS</title>
    <desc>Created with Sketch.</desc>
    <g id="Page-1" stroke="none" stroke-width="1" fill="none" fill-rule="evenodd">
        <g id="Mobile" transform="translate(-71.000000, -477.000000)" fill="#02111B" fill-rule="nonzero">
            <path d="M72.148,500.946667 C71.948,500.946667 71.781334,500.880001 71.648,500.746667 C71.514666,500.613333 71.448,500.446668 71.448,500.246667 L71.5146667,499.946667 L79.5146667,478.446667 C79.73689,477.891108 80.136886,477.613333 80.7146667,477.613333 L84.3813333,477.613333 C84.959114,477.613333 85.35911,477.891108 85.5813333,478.446667 L93.5813333,499.946667 L93.648,500.246667 C93.648,500.446668 93.5757785,500.613333 93.4313333,500.746667 C93.2868882,500.880001 93.1257787,500.946667 92.948,500.946667 L89.9813333,500.946667 C89.5146643,500.946667 89.1924453,500.735558 89.0146667,500.313333 L87.4813333,496.28 L77.6146667,496.28 L76.0813333,500.313333 C75.9035547,500.735558 75.5813357,500.946667 75.1146667,500.946667 L72.148,500.946667 Z M78.7813333,492.413333 L86.3146667,492.413333 L82.548,482.146667 L78.7813333,492.413333 Z M105.336889,501.28 C103.692436,501.28 102.186896,501.002225 100.820222,500.446667 C99.4535487,499.891108 98.3535597,499.057783 97.5202222,497.946667 C96.6868847,496.83555 96.2480002,495.491119 96.2035556,493.913333 C96.2035556,493.713332 96.2702216,493.541112 96.4035556,493.396667 C96.5368896,493.252222 96.7146656,493.18 96.9368889,493.18 L100.170222,493.18 C100.681336,493.18 101.003555,493.457775 101.136889,494.013333 C101.314668,495.168895 101.786885,496.024442 102.553556,496.58 C103.320226,497.135558 104.292439,497.413333 105.470222,497.413333 C106.848007,497.413333 107.909107,496.963338 108.653556,496.063333 C109.398004,495.163329 109.770222,493.90223 109.770222,492.28 L109.770222,481.613333 L98.4702222,481.613333 C98.2479989,481.613333 98.0591119,481.535556 97.9035556,481.38 C97.7479992,481.224444 97.6702222,481.024446 97.6702222,480.78 L97.6702222,478.413333 C97.6702222,478.168888 97.7479992,477.974445 97.9035556,477.83 C98.0591119,477.685555 98.2479989,477.613333 98.4702222,477.613333 L113.770222,477.613333 C114.014668,477.613333 114.20911,477.69111 114.353556,477.846667 C114.498001,478.002223 114.570222,478.202221 114.570222,478.446667 L114.570222,492.413333 C114.570222,494.257787 114.192448,495.84666 113.436889,497.18 C112.68133,498.51334 111.609118,499.529996 110.220222,500.23 C108.831326,500.930003 107.203556,501.28 105.336889,501.28 Z M119.025778,500.946667 C118.825778,500.946667 118.659112,500.880001 118.525778,500.746667 C118.392444,500.613333 118.325778,500.446668 118.325778,500.246667 L118.392444,499.946667 L126.392444,478.446667 C126.614668,477.891108 127.014664,477.613333 127.592444,477.613333 L131.259111,477.613333 C131.836892,477.613333 132.236888,477.891108 132.459111,478.446667 L140.459111,499.946667 L140.525778,500.246667 C140.525778,500.446668 140.453556,500.613333 140.309111,500.746667 C140.164666,500.880001 140.003556,500.946667 139.825778,500.946667 L136.859111,500.946667 C136.392442,500.946667 136.070223,500.735558 135.892444,500.313333 L134.359111,496.28 L124.492444,496.28 L122.959111,500.313333 C122.781332,500.735558 122.459113,500.946667 121.992444,500.946667 L119.025778,500.946667 Z M125.659111,492.413333 L133.192444,492.413333 L129.425778,482.146667 L125.659111,492.413333 Z M145.781333,500.946667 C145.55911,500.946667 145.370223,500.86889 145.214667,500.713333 C145.05911,500.557777 144.981333,500.36889 144.981333,500.146667 L144.981333,478.446667 C144.981333,478.202221 145.053555,478.002223 145.198,477.846667 C145.342445,477.69111 145.536888,477.613333 145.781333,477.613333 L148.381333,477.613333 C148.803558,477.613333 149.125777,477.80222 149.348,478.18 L158.881333,492.98 L158.881333,478.446667 C158.881333,478.202221 158.953555,478.002223 159.098,477.846667 C159.242445,477.69111 159.436888,477.613333 159.681333,477.613333 L162.548,477.613333 C162.792446,477.613333 162.992444,477.69111 163.148,477.846667 C163.303556,478.002223 163.381333,478.202221 163.381333,478.446667 L163.381333,500.113333 C163.381333,500.357779 163.303556,500.557777 163.148,500.713333 C162.992444,500.86889 162.803557,500.946667 162.581333,500.946667 L159.948,500.946667 C159.503553,500.946667 159.170223,500.75778 158.948,500.38 L149.448,485.913333 L149.448,500.146667 C149.448,500.36889 149.375778,500.557777 149.231333,500.713333 C149.086888,500.86889 148.892446,500.946667 148.648,500.946667 L145.781333,500.946667 Z M178.070222,501.28 C176.070212,501.28 174.359118,500.980003 172.936889,500.38 C171.51466,499.78 170.436893,498.991116 169.703556,498.013333 C168.970219,497.035551 168.581334,495.968895 168.536889,494.813333 C168.536889,494.635555 168.603555,494.474445 168.736889,494.33 C168.870223,494.185555 169.036889,494.113333 169.236889,494.113333 L172.270222,494.113333 C172.514668,494.113333 172.714666,494.168888 172.870222,494.28 C173.025779,494.391112 173.170222,494.546666 173.303556,494.746667 C173.525779,495.502226 174.031329,496.135553 174.820222,496.646667 C175.609115,497.15778 176.692438,497.413333 178.070222,497.413333 C179.625786,497.413333 180.797996,497.152225 181.586889,496.63 C182.375782,496.107775 182.770222,495.391116 182.770222,494.48 C182.770222,493.879997 182.570224,493.380002 182.170222,492.98 C181.77022,492.579998 181.164671,492.230002 180.353556,491.93 C179.54244,491.629998 178.336897,491.268891 176.736889,490.846667 C174.114654,490.224441 172.192451,489.402227 170.970222,488.38 C169.747994,487.357773 169.136889,485.891121 169.136889,483.98 C169.136889,482.691105 169.492441,481.541116 170.203556,480.53 C170.91467,479.518884 171.931327,478.724447 173.253556,478.146667 C174.575784,477.568886 176.114658,477.28 177.870222,477.28 C179.714676,477.28 181.309104,477.602219 182.653556,478.246667 C183.998007,478.891114 185.020219,479.696662 185.720222,480.663333 C186.420226,481.630005 186.792444,482.591106 186.836889,483.546667 C186.836889,483.724445 186.770223,483.885555 186.636889,484.03 C186.503555,484.174445 186.33689,484.246667 186.136889,484.246667 L182.970222,484.246667 C182.481331,484.246667 182.148001,484.046669 181.970222,483.646667 C181.859111,482.935552 181.425782,482.341114 180.670222,481.863333 C179.914663,481.385553 178.981339,481.146667 177.870222,481.146667 C176.647994,481.146667 175.686892,481.379998 174.986889,481.846667 C174.286885,482.313336 173.936889,482.991107 173.936889,483.88 C173.936889,484.480003 174.114665,484.979998 174.470222,485.38 C174.82578,485.78 175.38133,486.129998 176.136889,486.43 C176.892448,486.730001 177.992437,487.068887 179.436889,487.446667 C181.414677,487.891113 182.986883,488.391108 184.153556,488.946667 C185.320228,489.502225 186.181331,490.202218 186.736889,491.046667 C187.292447,491.891115 187.570222,492.968882 187.570222,494.28 C187.570222,495.724452 187.175782,496.974439 186.386889,498.03 C185.597996,499.085561 184.486896,499.891108 183.053556,500.446667 C181.620215,501.002225 179.959121,501.28 178.070222,501.28 Z" id="AJANS"></path>
        </g>
    </g>
</svg>